<?xml version="1.0" encoding="UTF-8"?>
<!DOCTYPE svg PUBLIC "-//W3C//DTD SVG 1.1//EN" "http://www.w3.org/Graphics/SVG/1.1/DTD/svg11.dtd">
<!-- Creator: CorelDRAW 2020 (64-Bit) -->
<svg xmlns="http://www.w3.org/2000/svg" xml:space="preserve" width="52.2862mm" height="80.471mm" version="1.1" style="shape-rendering:geometricPrecision; text-rendering:geometricPrecision; image-rendering:optimizeQuality; fill-rule:evenodd; clip-rule:evenodd"
viewBox="0 0 26.82 41.27"
 xmlns:xlink="http://www.w3.org/1999/xlink"
 xmlns:xodm="http://www.corel.com/coreldraw/odm/2003">
 <defs>
  <style type="text/css">
   <![CDATA[
    .str0 {stroke:#2B2A29;stroke-width:0.51;stroke-miterlimit:22.9256}
    .fil2 {fill:none}
    .fil0 {fill:#2B2A29}
    .fil1 {fill:#2B2A29;fill-rule:nonzero}
   ]]>
  </style>
 </defs>
 <g id="Слой_x0020_1">
  <metadata id="CorelCorpID_0Corel-Layer"/>
  <path class="fil0" d="M8.69 31.17l-0 0.45 0.59 0.37 1.07 0.67 3.99 2.49 4.02 -2.51 -0.31 -3.51 -3.71 2.32 -1.31 0.18 -3.35 -1.86 -0.27 -0.47c-0.03,0.34 -0.02,-0.15 -0.27,0.31 -0.33,0.59 -0.44,1.57 -0.44,1.57z"/>
  <path class="fil1" d="M18.72 6.09c0.72,0 1.38,0.29 1.85,0.77 0.47,0.47 0.77,1.13 0.77,1.85 0,0.72 -0.29,1.38 -0.77,1.85 -0.47,0.47 -1.13,0.77 -1.85,0.77 -0.72,0 -1.38,-0.29 -1.85,-0.77 -0.47,-0.47 -0.77,-1.13 -0.77,-1.85 0,-0.72 0.29,-1.38 0.77,-1.85 0.47,-0.47 1.13,-0.77 1.85,-0.77zm1.13 1.49c-0.29,-0.29 -0.69,-0.47 -1.13,-0.47 -0.44,0 -0.84,0.18 -1.13,0.47 -0.29,0.29 -0.47,0.69 -0.47,1.13 0,0.44 0.18,0.84 0.47,1.13 0.29,0.29 0.69,0.47 1.13,0.47 0.44,0 0.84,-0.18 1.13,-0.47 0.29,-0.29 0.47,-0.69 0.47,-1.13 0,-0.44 -0.18,-0.84 -0.47,-1.13z"/>
  <path class="fil1" d="M8.07 6.09c0.72,0 1.38,0.29 1.85,0.77 0.47,0.47 0.77,1.13 0.77,1.85 0,0.72 -0.29,1.38 -0.77,1.85 -0.47,0.47 -1.13,0.77 -1.85,0.77 -0.72,0 -1.38,-0.29 -1.85,-0.77 -0.47,-0.47 -0.77,-1.13 -0.77,-1.85 0,-0.72 0.29,-1.38 0.77,-1.85 0.47,-0.47 1.13,-0.77 1.85,-0.77zm1.13 1.49c-0.29,-0.29 -0.69,-0.47 -1.13,-0.47 -0.44,0 -0.84,0.18 -1.13,0.47 -0.29,0.29 -0.47,0.69 -0.47,1.13 0,0.44 0.18,0.84 0.47,1.13 0.29,0.29 0.69,0.47 1.13,0.47 0.44,0 0.84,-0.18 1.13,-0.47 0.29,-0.29 0.47,-0.69 0.47,-1.13 0,-0.44 -0.18,-0.84 -0.47,-1.13z"/>
  <g id="_1444719724944">
   <path class="fil1" d="M23.12 11.47l0 14.69 0 0.21 -0.18 0.11 -2.17 1.35 -4.82 3 -2.34 1.46 -0.21 0.13 -0.38 -0.24 -0 -0.22 -0 -14.68 0 -0.21 0.18 -0.11 9.33 -5.82 0.59 -0.37 0 0.69zm-0.77 14.47l0 -13.78 -8.56 5.34 0 13.78 1.76 -1.1 4.82 -3 1.98 -1.24z"/>
   <path class="fil1" d="M4.47 12.16l0 13.78 1.98 1.24 4.82 3 1.76 1.1 0 -13.78 -8.56 -5.34zm-0.77 13.99l0 -14.69 0 -0.69 0.59 0.37 9.33 5.82 0.18 0.11 -0 0.21 -0 14.68 -0 0.22 -0.38 0.24 -0.21 -0.13 -2.34 -1.46 -4.82 -3 -2.17 -1.35 -0.18 -0.11 0 -0.21z"/>
  </g>
  <path class="fil1" d="M9.23 29.82l-1.53 7.15 3.09 1.87 1.55 0.94 0.98 0.59 0.98 -0.59 1.55 -0.94 3.09 -1.87 -1.53 -7.15 -1.42 0.89 -1.66 1.04 0 -0 -1 0 -1 0 0 0 -1.66 -1.04 -1.42 -0.89zm4.09 11.45l-0.11 -0.07 -6.14 -3.72 -0.23 -0.14 0.06 -0.27 1.7 -7.96 0.11 -0.54 0.46 0.29 1.89 1.18 2.26 1.41 0 0.14 2.18 -0.82 2.11 -1.62 0.43 -0.28 0 0.25 1.7 7.96 0.06 0.27 -0.23 0.14 -6.14 3.72 -0.11 0.07z"/>
  <path class="fil0" d="M13.01 8.71l0 2.83 0.39 0 0.39 0 0 -2.83c0.1,-1.51 0.75,-2.87 1.75,-3.88 1.01,-1.01 2.37,-1.66 3.88,-1.75l0.72 0 0 -0.77 -0.72 0 -6.01 0 -6.01 0 -0.72 0 0 0.77 0.72 0c1.51,0.1 2.87,0.75 3.88,1.75 1.01,1.01 1.66,2.37 1.75,3.88zm10.2 -8.71c0,0.85 -0.34,1.62 -0.9,2.18 -0.56,0.56 -1.33,0.9 -2.18,0.9l0 -0.77c0.64,0 1.22,-0.26 1.63,-0.68 0.42,-0.42 0.68,-1 0.68,-1.63l0.77 0zm-19.63 0c0,0.85 0.34,1.62 0.9,2.18 0.56,0.56 1.33,0.9 2.18,0.9l0 -0.77c-0.64,0 -1.22,-0.26 -1.63,-0.68 -0.42,-0.42 -0.68,-1 -0.68,-1.63l-0.77 0z"/>
  <path class="fil1" d="M23.12 10.78c0.01,-0 3.18,-0.05 3.66,4.59 0.46,4.42 -3.65,10.98 -3.66,11l-0.64 -0.48c0.01,-0.02 3.98,-6.29 3.54,-10.44 -0.41,-3.94 -2.94,-3.9 -2.95,-3.9l0.02 -0.39 0.02 -0.38z"/>
  <path class="fil1" d="M3.7 10.78c-0.01,-0 -3.18,-0.05 -3.66,4.59 -0.46,4.42 3.65,10.98 3.66,11l0.64 -0.48c-0.01,-0.02 -3.98,-6.29 -3.54,-10.44 0.41,-3.94 2.94,-3.9 2.95,-3.9l-0.05 -0.77z"/>
  <path class="fil0" d="M24.37 11.55l-1.28 -0.4 -0.34 0.44 0.04 14.53c0,0 2.64,-4.81 3.03,-6.66 0.4,-1.86 0.91,-3.12 0.48,-4.72 -0.43,-1.6 -1.94,-3.2 -1.94,-3.2z"/>
  <path class="fil0" d="M2.46 11.55l1.28 -0.4 0.34 0.44 -0.04 14.53c0,0 -2.64,-4.81 -3.03,-6.66 -0.4,-1.86 -0.91,-3.12 -0.48,-4.72 0.43,-1.6 1.94,-3.2 1.94,-3.2z"/>
  <path class="fil2 str0" d="M10.13 38.84l1.09 -7.61m5.39 7.61l-1.09 -7.61m-2.25 9.55l0.04 -0.4 0 -7.09"/>
 </g>
</svg>
