<?xml version="1.0" encoding="UTF-8"?>
<svg xmlns="http://www.w3.org/2000/svg" width="226" height="81" viewBox="0 0 226 81" fill="none">
  <g clip-path="url(#clip0_1_22)">
    <path fill-rule="evenodd" clip-rule="evenodd" d="M215.546 53.5455L211.196 46.0455C210.74 45.2728 209.943 44.8182 209.009 44.8182H208.736V43.75H215.979V44.8182H215.386C215.136 44.8182 214.931 44.9318 214.817 45.1364C214.68 45.3409 214.68 45.5682 214.794 45.7727L218.438 52.0455L222.082 45.7727C222.196 45.5682 222.196 45.3409 222.082 45.1364C221.969 44.9318 221.741 44.8182 221.513 44.8182H220.921V43.75H225.749V44.8182H225.476C224.542 44.8182 223.745 45.2728 223.289 46.0455L218.917 53.5455V59.9318H220.67V61H213.815V59.9318H215.546V53.5455ZM184.708 62.4318C182.43 63.8637 179.788 64.5909 176.759 64.5909C172.91 64.5909 169.881 63.3182 167.649 60.7955C165.417 58.25 164.324 54.7955 164.324 50.4091C164.324 45.9546 165.394 42.5 167.535 40.0228C169.676 37.5682 172.66 36.3182 176.509 36.3182C178.467 36.3182 181.064 36.7728 184.252 37.6591V42.8409H183.114V42.5682C183.114 37.6364 174.072 35.2046 170.268 41.0455C168.742 43.3637 168.014 46.4773 168.014 50.3637C168.014 54.2727 168.902 57.2955 170.678 59.5C172.455 61.6818 174.915 62.7727 178.103 62.7727C180.176 62.7727 182.362 62.0682 184.708 60.6591V62.4318ZM190.516 59.9546H192.269V61.0227H185.414V59.9546H187.145V46.1137C187.145 45.4091 186.53 44.8409 185.778 44.8409H185.391V43.7728H192.247V44.8409H191.859C191.108 44.8409 190.493 45.4091 190.493 46.1137V59.9546H190.516ZM198.783 44.8409H195.481C194.729 44.8409 194.114 45.4091 194.114 46.1137V46.4773H192.975V43.7728H208.03V46.4773H206.891V46.1137C206.891 45.4091 206.276 44.8409 205.525 44.8409H202.177V59.9546H203.908V61.0227H197.052V59.9546H198.783V44.8409ZM42.6355 39.6591H47.0995V59.9545H45.3458V61.0227H52.2012V59.9545H50.4703V39.6591H54.957C55.7086 39.6591 56.3235 40.2273 56.3235 40.9318V42.6818H57.8039V38.5909H39.7886V42.6818H41.269V40.9318C41.269 40.2273 41.8839 39.6591 42.6355 39.6591ZM108.069 62.4318H38.5813V64.5909H109.709L108.069 62.4318ZM167.285 62.4318H116.997V64.5909H170.291C169.221 64.0454 168.218 63.3409 167.285 62.4318ZM226 62.4318H186.143V63.2045L185.482 63.6136C184.89 63.9772 184.298 64.3182 183.683 64.5909H226V62.4318ZM84.9977 52.4545V59.9545H86.7514V61.0227H79.8961V59.9545H81.627V46.1136C81.627 45.4091 81.0121 44.8409 80.2605 44.8409H79.8733V43.7727H86.7287V44.8409H86.3415C85.5899 44.8409 84.975 45.4091 84.975 46.1136V51.4545H91.6254V46.1136C91.6254 45.4091 91.0105 44.8409 90.2816 44.8409H89.8945V43.7727H96.7498V44.8409H96.3627C95.6111 44.8409 94.9961 45.4091 94.9961 46.1136V59.9545H96.7271V61.0227H89.8717V59.9545H91.6026V52.4545H84.9977ZM113.695 61.0227H125.994L125.971 58.3182H124.354V59.9545H118.797V52.4545H122.76V54.0909H123.898V49.8182H122.76V51.4545H118.797V44.8409H123.01C123.739 44.8409 124.354 45.4091 124.354 46.1136V46.4773H125.515V43.7727H113.695V44.8409H114.082C114.811 44.8409 115.426 45.4091 115.426 46.1136V59.9545H113.695V61.0227ZM138.815 61.0227L130.024 48.1591V59.9318H131.778V61H126.699V59.9318H128.453V46.0909C128.453 45.3864 127.838 44.8182 127.086 44.8182H126.699V43.75H130.73L139.613 56.7727V46.0909C139.613 45.3864 138.998 44.8182 138.246 44.8182H137.859V43.75H142.915V44.8182H142.528C141.776 44.8182 141.184 45.3864 141.184 46.0909V61H138.815V61.0227ZM146.149 44.8409H149.452V59.9545H147.721V61.0227H154.576V59.9545H152.845V44.8409H156.193C156.945 44.8409 157.56 45.4091 157.56 46.1136V46.4773H158.698V43.7727H143.644V46.4773H144.783V46.1136C144.783 45.4091 145.398 44.8409 146.149 44.8409ZM62.9282 43.7727L68.7944 57.1818H68.8044L68.9411 57.4773C69.3725 58.3814 70.3149 59.0817 70.7228 59.3849L70.7859 59.4318C71.5375 60 72.4029 60.2955 73.405 60.2955C74.3616 60.2955 75.136 60 75.7281 59.4546C76.3203 58.8864 76.6164 58.1364 76.6164 57.2273C76.6164 56.5 76.4342 55.9091 76.0925 55.4773C75.7509 55.0455 75.0904 54.5455 74.0883 54.0227L72.8812 53.3864C69.8749 51.7955 68.3945 50.0682 68.3945 48.2046C68.3945 45.3182 70.6264 43.3182 74.3388 43.3182C75.7509 43.3182 77.368 43.5682 79.19 44.0909V47.5682H78.0512V47.3637C78.0512 45.5227 76.4114 44.4318 74.8627 44.4318C73.1545 44.4318 72.0841 45.3409 71.9019 46.5C71.7197 47.6591 72.4485 49.0909 74.3844 50.1818C74.4703 50.2295 74.5575 50.2776 74.6457 50.3262L74.8113 50.4175L74.8114 50.4175C76.3732 51.2778 78.2144 52.2919 79.2355 53.4773C79.896 54.25 80.2149 55.1818 80.2149 56.2727C80.2149 57.8637 79.5999 59.1137 78.3701 60.0455C77.1402 60.9773 75.5004 61.4546 73.4278 61.4546C72.2334 61.4546 70.9056 61.3066 69.4324 61.0227H64.8413V59.9545H66.595L64.7275 55.6591H57.9632L56.0501 59.9545H57.781V61.0227H52.9526V59.9545H54.6835L61.7667 43.7727H62.9282ZM64.2492 54.6591L61.3112 47.9318L58.3731 54.6591H64.2492ZM102.421 59.9318V52.7046L111.463 64.5909L115.539 64.5682V62.4318H113.809L105.017 50.9091L110.028 46C110.825 45.2045 111.804 44.8182 112.966 44.8182V43.75H107.705V44.8182H107.841C108.115 44.8182 108.342 44.9773 108.456 45.2045C108.547 45.4545 108.502 45.7273 108.32 45.9091L102.375 51.7046V46.0909C102.375 45.3864 102.99 44.8182 103.742 44.8182H104.129V43.75H97.4102V44.8182H97.7974C98.549 44.8182 99.1639 45.3864 99.1639 46.0909V59.9318H97.433V61H104.152V59.9318H102.421Z" fill="white"></path>
    <path fill-rule="evenodd" clip-rule="evenodd" d="M2.18644 56.2727L3.66683 54.8409V80.9773H2.18644V56.2727ZM0 58.3864L1.4804 56.9546V80.9773H0V58.3864ZM5.87605 52.7273V80.9546H4.39565V54.1591L5.87605 52.7273ZM8.06248 50.6364V67.7727L7.44755 68.1364V80.9773H6.58208V52.0682L8.06248 50.6364ZM10.2489 48.5227V66.5227L9.63398 66.8864V81H8.76852V49.9546L10.2489 48.5227ZM12.4354 46.4091V65.25L11.8204 65.6137V80.9773H10.955V47.8409L12.4354 46.4091ZM23.4586 56.2727L21.9782 54.8409V80.9773H23.4586V56.2727ZM25.6451 58.3864L24.1647 56.9546V80.9773H25.6451V58.3864ZM19.7918 52.7273V80.9546H21.2722V54.1591L19.7918 52.7273ZM17.5826 50.6364V67.7727L18.1975 68.1364V80.9773H19.063V52.0682L17.5826 50.6364ZM15.3961 48.5227V66.5227L16.0111 66.8864V81H16.8765V49.9546L15.3961 48.5227ZM13.2097 46.4091V65.25L13.8246 65.5909V80.9546H14.6901V47.8409L13.2097 46.4091Z" fill="#1E3567"></path>
    <path fill-rule="evenodd" clip-rule="evenodd" d="M12.4355 26.4545L11.8205 27.2955V1.18182L12.4355 0V26.4545ZM10.249 29.4545L9.6341 30.2955V5.38636L10.249 4.20455V29.4545ZM8.0626 32.4545L7.44767 33.2955V9.56818L8.0626 8.38636V32.4545ZM5.87617 35.4773L5.26123 36.3182V13.7727L5.87617 12.5909V35.4773ZM13.2098 26.4545L13.8248 27.2955V1.18182L13.2098 0V26.4545ZM15.3962 29.4545L16.0112 30.2955V5.38636L15.3962 4.20455V29.4545ZM17.5827 32.4545L18.1976 33.2955V9.56818L17.5827 8.38636V32.4545ZM19.7919 35.4773L20.4068 36.3182V13.7727L19.7919 12.5909V35.4773Z" fill="#D6B46B"></path>
    <path fill-rule="evenodd" clip-rule="evenodd" d="M22.9804 55.8182V39.8636L21.9783 38.4773V54.8409L22.9804 55.8182ZM20.794 53.7045V36.8409L19.7919 35.4545V52.7273L20.794 53.7045ZM18.5848 51.5909V33.8409L17.5827 32.4545V50.6136L18.5848 51.5909ZM16.3983 49.4773V30.8182L15.3962 29.4318V48.5L16.3983 49.4773ZM14.2119 47.3863V27.8409L13.2098 26.4545V46.4091L14.2119 47.3863ZM2.66479 55.8182V39.8636L3.66691 38.4773V54.8409L2.66479 55.8182ZM4.85123 53.7045V36.8409L5.85334 35.4545V52.7273L4.85123 53.7045ZM7.06044 51.5909V33.8409L8.06255 32.4545V50.6136L7.06044 51.5909ZM9.24687 49.4773V30.8182L10.249 29.4318V48.5L9.24687 49.4773ZM11.4333 47.3636V27.8182L12.4354 26.4318V46.3863L11.4333 47.3636Z" fill="#1B65AE"></path>
  </g>
  <defs>
    <clipPath id="clip0_1_22">
      <rect width="226" height="81" fill="white"></rect>
    </clipPath>
  </defs>
</svg>
